<?xml version="1.0" encoding="UTF-8"?>
<svg xmlns="http://www.w3.org/2000/svg" xmlns:xlink="http://www.w3.org/1999/xlink" width="45px" height="45px" viewBox="0 0 40 40" version="1.1">
<g id="surface1">
<path style=" stroke:none;fill-rule:nonzero;fill:rgb(100%,72.54902%,32.941176%);fill-opacity:1;" d="M 7.65625 35.78125 L 0.78125 35.78125 L 0.78125 4.21875 C 0.78125 2.320312 2.320312 0.78125 4.21875 0.78125 C 6.117188 0.78125 7.65625 2.320312 7.65625 4.21875 Z M 7.65625 35.78125 "/>
<path style=" stroke:none;fill-rule:nonzero;fill:rgb(100%,100%,100%);fill-opacity:1;" d="M 7.65625 4.21875 L 29.21875 4.21875 C 30.082031 4.21875 30.78125 4.917969 30.78125 5.78125 L 30.78125 35.78125 L 7.65625 35.78125 "/>
<path style=" stroke:none;fill-rule:nonzero;fill:rgb(99.607843%,85.490196%,60.784314%);fill-opacity:1;" d="M 7.65625 35.78125 C 7.65625 33.882812 6.117188 32.34375 4.21875 32.34375 C 2.320312 32.34375 0.78125 33.882812 0.78125 35.78125 C 0.78125 37.679688 2.320312 39.21875 4.21875 39.21875 L 24.957031 39.21875 C 25.820312 39.21875 26.519531 38.519531 26.519531 37.65625 L 26.519531 35.78125 Z M 7.65625 35.78125 "/>
<path style=" stroke:none;fill-rule:nonzero;fill:rgb(100%,100%,100%);fill-opacity:1;" d="M 10.78125 7.34375 L 27.65625 7.34375 L 27.65625 12.34375 L 10.78125 12.34375 Z M 10.78125 7.34375 "/>
<path style=" stroke:none;fill-rule:nonzero;fill:rgb(44.705882%,84.705882%,100%);fill-opacity:1;" d="M 10.78125 16.09375 L 20 16.09375 L 20 23.59375 L 10.78125 23.59375 Z M 10.78125 16.09375 "/>
<path style=" stroke:none;fill-rule:nonzero;fill:rgb(100%,36.470588%,36.470588%);fill-opacity:1;" d="M 10.78125 7.34375 L 27.65625 7.34375 L 27.65625 12.34375 L 10.78125 12.34375 Z M 10.78125 7.34375 "/>
<path style=" stroke:none;fill-rule:nonzero;fill:rgb(30.196078%,72.941176%,96.470588%);fill-opacity:1;" d="M 24.871094 20.296875 L 38.808594 34.234375 C 39.355469 34.78125 39.355469 35.667969 38.808594 36.21875 L 36.21875 38.808594 C 35.667969 39.355469 34.78125 39.355469 34.234375 38.808594 L 20.296875 24.871094 Z M 24.871094 20.296875 "/>
<path style=" stroke:none;fill-rule:nonzero;fill:rgb(100%,72.54902%,32.941176%);fill-opacity:1;" d="M 31.90625 36.480469 L 34.234375 38.808594 C 34.78125 39.355469 35.667969 39.355469 36.21875 38.808594 L 38.808594 36.21875 C 39.355469 35.667969 39.355469 34.78125 38.808594 34.234375 L 36.480469 31.90625 Z M 31.90625 36.480469 "/>
<path style=" stroke:none;fill-rule:nonzero;fill:rgb(84.705882%,84.705882%,89.411765%);fill-opacity:1;" d="M 17.472656 17.472656 L 24.871094 20.296875 L 20.296875 24.871094 Z M 17.472656 17.472656 "/>
<path style=" stroke:none;fill-rule:nonzero;fill:rgb(0%,0%,0%);fill-opacity:1;" d="M 7.65625 27.96875 C 7.449219 27.96875 7.25 28.050781 7.105469 28.199219 C 6.957031 28.34375 6.875 28.542969 6.875 28.75 C 6.875 28.957031 6.957031 29.15625 7.105469 29.300781 C 7.25 29.449219 7.449219 29.53125 7.65625 29.53125 C 7.863281 29.53125 8.0625 29.449219 8.207031 29.300781 C 8.355469 29.15625 8.4375 28.957031 8.4375 28.75 C 8.4375 28.542969 8.355469 28.34375 8.207031 28.199219 C 8.0625 28.050781 7.863281 27.96875 7.65625 27.96875 Z M 7.65625 27.96875 "/>
<path style=" stroke:none;fill-rule:nonzero;fill:rgb(0%,0%,0%);fill-opacity:1;" d="M 30.78125 21.25 C 30.574219 21.25 30.375 21.332031 30.230469 21.480469 C 30.082031 21.625 30 21.824219 30 22.03125 C 30 22.238281 30.082031 22.4375 30.230469 22.582031 C 30.375 22.730469 30.574219 22.8125 30.78125 22.8125 C 30.988281 22.8125 31.1875 22.730469 31.332031 22.582031 C 31.480469 22.4375 31.5625 22.238281 31.5625 22.03125 C 31.5625 21.824219 31.480469 21.625 31.332031 21.480469 C 31.1875 21.332031 30.988281 21.25 30.78125 21.25 Z M 30.78125 21.25 "/>
<path style=" stroke:none;fill-rule:nonzero;fill:rgb(0%,0%,0%);fill-opacity:1;" d="M 28.4375 7.34375 C 28.4375 6.914062 28.085938 6.5625 27.65625 6.5625 L 10.78125 6.5625 C 10.351562 6.5625 10 6.914062 10 7.34375 L 10 12.34375 C 10 12.773438 10.351562 13.125 10.78125 13.125 L 27.65625 13.125 C 28.085938 13.125 28.4375 12.773438 28.4375 12.34375 Z M 26.875 11.5625 L 11.5625 11.5625 L 11.5625 8.125 L 26.875 8.125 Z M 26.875 11.5625 "/>
<path style=" stroke:none;fill-rule:nonzero;fill:rgb(0%,0%,0%);fill-opacity:1;" d="M 27.65625 15.3125 L 23.828125 15.3125 C 23.398438 15.3125 23.046875 15.664062 23.046875 16.09375 C 23.046875 16.523438 23.398438 16.875 23.828125 16.875 L 27.65625 16.875 C 28.085938 16.875 28.4375 16.523438 28.4375 16.09375 C 28.4375 15.664062 28.085938 15.3125 27.65625 15.3125 Z M 27.65625 15.3125 "/>
<path style=" stroke:none;fill-rule:nonzero;fill:rgb(0%,0%,0%);fill-opacity:1;" d="M 39.359375 33.679688 L 25.425781 19.746094 C 25.347656 19.667969 25.253906 19.605469 25.152344 19.566406 L 17.753906 16.742188 C 17.464844 16.632812 17.140625 16.703125 16.921875 16.921875 C 16.703125 17.140625 16.632812 17.464844 16.746094 17.753906 L 18.675781 22.8125 L 11.5625 22.8125 L 11.5625 16.875 L 15.390625 16.875 C 15.820312 16.875 16.171875 16.523438 16.171875 16.09375 C 16.171875 15.664062 15.820312 15.3125 15.390625 15.3125 L 10.78125 15.3125 C 10.351562 15.3125 10 15.664062 10 16.09375 L 10 23.59375 C 10 24.023438 10.351562 24.375 10.78125 24.375 L 19.273438 24.375 L 19.566406 25.148438 C 19.605469 25.253906 19.667969 25.347656 19.746094 25.425781 L 20.882812 26.5625 L 10.78125 26.5625 C 10.351562 26.5625 10 26.914062 10 27.34375 C 10 27.773438 10.351562 28.125 10.78125 28.125 L 22.445312 28.125 L 24.632812 30.3125 L 10.78125 30.3125 C 10.351562 30.3125 10 30.664062 10 31.09375 C 10 31.523438 10.351562 31.875 10.78125 31.875 L 26.195312 31.875 L 29.320312 35 L 8.363281 35 C 7.996094 33.046875 6.277344 31.5625 4.21875 31.5625 C 3.210938 31.5625 2.289062 31.917969 1.5625 32.507812 L 1.5625 4.21875 C 1.5625 2.753906 2.753906 1.5625 4.21875 1.5625 C 5.683594 1.5625 6.875 2.753906 6.875 4.21875 L 6.875 25.359375 C 6.875 25.789062 7.226562 26.140625 7.65625 26.140625 C 8.085938 26.140625 8.4375 25.789062 8.4375 25.359375 L 8.4375 5 L 29.21875 5 C 29.648438 5 30 5.351562 30 5.78125 L 30 19.242188 C 30 19.671875 30.347656 20.023438 30.78125 20.023438 C 31.210938 20.023438 31.5625 19.671875 31.5625 19.242188 L 31.5625 5.78125 C 31.5625 4.488281 30.511719 3.4375 29.21875 3.4375 L 8.363281 3.4375 C 7.996094 1.484375 6.277344 0 4.21875 0 C 1.890625 0 0 1.894531 0 4.21875 L 0 35.78125 C 0 38.105469 1.890625 40 4.21875 40 L 24.957031 40 C 26.25 40 27.300781 38.949219 27.300781 37.65625 L 27.300781 36.5625 L 30.78125 36.5625 C 30.8125 36.5625 30.84375 36.558594 30.875 36.554688 L 33.679688 39.359375 C 34.105469 39.785156 34.667969 40 35.226562 40 C 35.785156 40 36.34375 39.785156 36.769531 39.359375 L 39.359375 36.769531 C 39.773438 36.355469 40 35.808594 40 35.226562 C 40 34.640625 39.773438 34.09375 39.359375 33.679688 Z M 25.738281 37.65625 C 25.738281 38.085938 25.386719 38.4375 24.957031 38.4375 L 4.21875 38.4375 C 2.753906 38.4375 1.5625 37.246094 1.5625 35.78125 C 1.5625 34.316406 2.753906 33.125 4.21875 33.125 C 5.683594 33.125 6.875 34.316406 6.875 35.78125 C 6.875 36.210938 7.226562 36.5625 7.65625 36.5625 L 25.738281 36.5625 Z M 21.402344 24.871094 L 24.871094 21.402344 L 35.378906 31.90625 L 31.90625 35.378906 Z M 23.46875 20.597656 L 20.597656 23.46875 L 18.828125 18.828125 Z M 38.253906 35.664062 L 35.664062 38.253906 C 35.421875 38.496094 35.027344 38.496094 34.785156 38.253906 L 33.011719 36.480469 L 36.480469 33.011719 L 38.253906 34.785156 C 38.371094 34.902344 38.4375 35.058594 38.4375 35.226562 C 38.4375 35.390625 38.371094 35.546875 38.253906 35.664062 Z M 38.253906 35.664062 "/>
</g>
</svg>
