<?xml version="1.0" encoding="UTF-8"?>
<svg xmlns="http://www.w3.org/2000/svg" xmlns:xlink="http://www.w3.org/1999/xlink" width="50px" height="50px" viewBox="0 0 40 40" version="1.1">
<g id="surface1">
<path style=" stroke:none;fill-rule:nonzero;fill:rgb(30.196078%,72.941176%,96.470588%);fill-opacity:1;" d="M 13.613281 3.90625 L 8.125 3.90625 C 6.398438 3.90625 5 5.304688 5 7.03125 L 5 36.09375 C 5 37.820312 6.398438 39.21875 8.125 39.21875 L 31.875 39.21875 C 33.601562 39.21875 35 37.820312 35 36.09375 L 35 7.03125 C 35 5.304688 33.601562 3.90625 31.875 3.90625 L 26.238281 3.90625 C 26.238281 3.90625 13.613281 3.90625 13.613281 3.90625 Z M 13.613281 3.90625 "/>
<path style=" stroke:none;fill-rule:nonzero;fill:rgb(100%,100%,100%);fill-opacity:1;" d="M 10.625 7.65625 L 29.375 7.65625 C 30.238281 7.65625 30.9375 8.355469 30.9375 9.21875 L 30.9375 33.4375 C 30.9375 34.300781 30.238281 35 29.375 35 L 10.625 35 C 9.761719 35 9.0625 34.300781 9.0625 33.4375 L 9.0625 9.21875 C 9.0625 8.355469 9.761719 7.65625 10.625 7.65625 Z M 10.625 7.65625 "/>
<path style=" stroke:none;fill-rule:nonzero;fill:rgb(44.705882%,84.705882%,100%);fill-opacity:1;" d="M 24.160156 3.28125 L 22.542969 3.28125 C 22.519531 1.898438 21.390625 0.78125 20 0.78125 C 18.609375 0.78125 17.480469 1.894531 17.457031 3.28125 L 15.839844 3.28125 C 14.636719 3.28125 13.664062 4.253906 13.664062 5.457031 L 13.664062 7.65625 L 26.335938 7.65625 L 26.335938 5.457031 C 26.335938 4.253906 25.363281 3.28125 24.160156 3.28125 Z M 24.160156 3.28125 "/>
<path style=" stroke:none;fill-rule:nonzero;fill:rgb(100%,36.470588%,36.470588%);fill-opacity:1;" d="M 12.5 12.03125 L 27.5 12.03125 L 27.5 17.96875 L 12.5 17.96875 Z M 12.5 12.03125 "/>
<path style=" stroke:none;fill-rule:nonzero;fill:rgb(0%,0%,0%);fill-opacity:1;" d="M 35 22.976562 C 34.792969 22.976562 34.59375 23.0625 34.445312 23.207031 C 34.300781 23.351562 34.21875 23.554688 34.21875 23.757812 C 34.21875 23.964844 34.300781 24.167969 34.445312 24.3125 C 34.59375 24.457031 34.792969 24.539062 35 24.539062 C 35.207031 24.539062 35.40625 24.457031 35.550781 24.3125 C 35.699219 24.167969 35.78125 23.964844 35.78125 23.757812 C 35.78125 23.554688 35.699219 23.351562 35.550781 23.207031 C 35.40625 23.0625 35.207031 22.976562 35 22.976562 Z M 35 22.976562 "/>
<path style=" stroke:none;fill-rule:nonzero;fill:rgb(0%,0%,0%);fill-opacity:1;" d="M 35 26.589844 C 34.570312 26.589844 34.21875 26.9375 34.21875 27.371094 L 34.21875 36.09375 C 34.21875 37.386719 33.167969 38.4375 31.875 38.4375 L 8.125 38.4375 C 6.832031 38.4375 5.78125 37.386719 5.78125 36.09375 L 5.78125 7.03125 C 5.78125 5.738281 6.832031 4.6875 8.125 4.6875 L 12.984375 4.6875 C 12.917969 4.933594 12.882812 5.191406 12.882812 5.457031 L 12.882812 6.875 L 10.625 6.875 C 9.332031 6.875 8.28125 7.925781 8.28125 9.21875 L 8.28125 33.4375 C 8.28125 34.730469 9.332031 35.78125 10.625 35.78125 L 29.375 35.78125 C 30.667969 35.78125 31.71875 34.730469 31.71875 33.4375 L 31.71875 9.21875 C 31.71875 7.925781 30.667969 6.875 29.375 6.875 L 27.117188 6.875 L 27.117188 5.457031 C 27.117188 5.191406 27.082031 4.933594 27.015625 4.6875 L 31.875 4.6875 C 33.167969 4.6875 34.21875 5.738281 34.21875 7.03125 L 34.21875 19.84375 C 34.21875 20.273438 34.566406 20.625 35 20.625 C 35.429688 20.625 35.78125 20.273438 35.78125 19.84375 L 35.78125 7.03125 C 35.78125 4.878906 34.027344 3.125 31.875 3.125 L 25.976562 3.125 C 25.476562 2.734375 24.84375 2.5 24.160156 2.5 L 23.222656 2.5 C 22.847656 1.066406 21.539062 0 20 0 C 18.460938 0 17.148438 1.066406 16.777344 2.5 L 15.839844 2.5 C 15.15625 2.5 14.523438 2.734375 14.023438 3.125 L 8.125 3.125 C 5.972656 3.125 4.21875 4.878906 4.21875 7.03125 L 4.21875 36.09375 C 4.21875 38.246094 5.972656 40 8.125 40 L 31.875 40 C 34.027344 40 35.78125 38.246094 35.78125 36.09375 L 35.78125 27.371094 C 35.78125 26.9375 35.429688 26.589844 35 26.589844 Z M 30.15625 9.21875 L 30.15625 33.4375 C 30.15625 33.867188 29.804688 34.21875 29.375 34.21875 L 10.625 34.21875 C 10.195312 34.21875 9.84375 33.867188 9.84375 33.4375 L 9.84375 9.21875 C 9.84375 8.789062 10.195312 8.4375 10.625 8.4375 L 29.375 8.4375 C 29.804688 8.4375 30.15625 8.789062 30.15625 9.21875 Z M 17.457031 4.0625 C 17.882812 4.0625 18.230469 3.722656 18.238281 3.296875 C 18.253906 2.339844 19.042969 1.5625 20 1.5625 C 20.957031 1.5625 21.746094 2.339844 21.761719 3.296875 C 21.769531 3.722656 22.117188 4.0625 22.542969 4.0625 L 24.160156 4.0625 C 24.929688 4.0625 25.554688 4.6875 25.554688 5.457031 L 25.554688 6.875 L 14.445312 6.875 L 14.445312 5.457031 C 14.445312 4.6875 15.070312 4.0625 15.839844 4.0625 Z M 17.457031 4.0625 "/>
<path style=" stroke:none;fill-rule:nonzero;fill:rgb(0%,0%,0%);fill-opacity:1;" d="M 20 12.8125 C 20.207031 12.8125 20.40625 12.730469 20.550781 12.582031 C 20.699219 12.4375 20.78125 12.238281 20.78125 12.03125 C 20.78125 11.824219 20.699219 11.625 20.550781 11.476562 C 20.40625 11.332031 20.207031 11.25 20 11.25 C 19.792969 11.25 19.59375 11.332031 19.449219 11.476562 C 19.300781 11.625 19.21875 11.824219 19.21875 12.03125 C 19.21875 12.238281 19.300781 12.4375 19.449219 12.582031 C 19.59375 12.730469 19.792969 12.8125 20 12.8125 Z M 20 12.8125 "/>
<path style=" stroke:none;fill-rule:nonzero;fill:rgb(0%,0%,0%);fill-opacity:1;" d="M 22.578125 12.03125 C 22.578125 12.460938 22.929688 12.8125 23.359375 12.8125 L 26.71875 12.8125 L 26.71875 17.1875 L 13.28125 17.1875 L 13.28125 12.8125 L 16.535156 12.8125 C 16.96875 12.8125 17.316406 12.460938 17.316406 12.03125 C 17.316406 11.601562 16.96875 11.25 16.535156 11.25 L 12.5 11.25 C 12.070312 11.25 11.71875 11.601562 11.71875 12.03125 L 11.71875 17.96875 C 11.71875 18.398438 12.070312 18.75 12.5 18.75 L 27.5 18.75 C 27.929688 18.75 28.28125 18.398438 28.28125 17.96875 L 28.28125 12.03125 C 28.28125 11.601562 27.929688 11.25 27.5 11.25 L 23.359375 11.25 C 22.929688 11.25 22.578125 11.601562 22.578125 12.03125 Z M 22.578125 12.03125 "/>
<path style=" stroke:none;fill-rule:nonzero;fill:rgb(0%,0%,0%);fill-opacity:1;" d="M 27.5 25.3125 L 21.875 25.3125 C 21.441406 25.3125 21.09375 25.664062 21.09375 26.09375 C 21.09375 26.523438 21.441406 26.875 21.875 26.875 L 27.5 26.875 C 27.929688 26.875 28.28125 26.523438 28.28125 26.09375 C 28.28125 25.664062 27.929688 25.3125 27.5 25.3125 Z M 27.5 25.3125 "/>
<path style=" stroke:none;fill-rule:nonzero;fill:rgb(0%,0%,0%);fill-opacity:1;" d="M 27.5 20.9375 L 21.875 20.9375 C 21.441406 20.9375 21.09375 21.289062 21.09375 21.71875 C 21.09375 22.148438 21.441406 22.5 21.875 22.5 L 27.5 22.5 C 27.929688 22.5 28.28125 22.148438 28.28125 21.71875 C 28.28125 21.289062 27.929688 20.9375 27.5 20.9375 Z M 27.5 20.9375 "/>
<path style=" stroke:none;fill-rule:nonzero;fill:rgb(0%,0%,0%);fill-opacity:1;" d="M 27.5 29.6875 L 21.875 29.6875 C 21.441406 29.6875 21.09375 30.039062 21.09375 30.46875 C 21.09375 30.898438 21.441406 31.25 21.875 31.25 L 27.5 31.25 C 27.929688 31.25 28.28125 30.898438 28.28125 30.46875 C 28.28125 30.039062 27.929688 29.6875 27.5 29.6875 Z M 27.5 29.6875 "/>
<path style=" stroke:none;fill-rule:nonzero;fill:rgb(0%,0%,0%);fill-opacity:1;" d="M 18.125 25.3125 L 12.5 25.3125 C 12.070312 25.3125 11.71875 25.664062 11.71875 26.09375 C 11.71875 26.523438 12.070312 26.875 12.5 26.875 L 18.125 26.875 C 18.558594 26.875 18.90625 26.523438 18.90625 26.09375 C 18.90625 25.664062 18.558594 25.3125 18.125 25.3125 Z M 18.125 25.3125 "/>
<path style=" stroke:none;fill-rule:nonzero;fill:rgb(0%,0%,0%);fill-opacity:1;" d="M 18.125 20.9375 L 12.5 20.9375 C 12.070312 20.9375 11.71875 21.289062 11.71875 21.71875 C 11.71875 22.148438 12.070312 22.5 12.5 22.5 L 18.125 22.5 C 18.558594 22.5 18.90625 22.148438 18.90625 21.71875 C 18.90625 21.289062 18.558594 20.9375 18.125 20.9375 Z M 18.125 20.9375 "/>
<path style=" stroke:none;fill-rule:nonzero;fill:rgb(0%,0%,0%);fill-opacity:1;" d="M 18.125 29.6875 L 12.5 29.6875 C 12.070312 29.6875 11.71875 30.039062 11.71875 30.46875 C 11.71875 30.898438 12.070312 31.25 12.5 31.25 L 18.125 31.25 C 18.558594 31.25 18.90625 30.898438 18.90625 30.46875 C 18.90625 30.039062 18.558594 29.6875 18.125 29.6875 Z M 18.125 29.6875 "/>
</g>
</svg>
