<?xml version="1.0" encoding="UTF-8"?>
<svg xmlns="http://www.w3.org/2000/svg" xmlns:xlink="http://www.w3.org/1999/xlink" width="45px" height="45px" viewBox="0 0 40 40" version="1.1">
<g id="surface1">
<path style=" stroke:none;fill-rule:nonzero;fill:rgb(93.72549%,93.72549%,93.72549%);fill-opacity:1;" d="M 0.628906 5.609375 L 39.371094 5.609375 L 39.371094 29.019531 L 0.628906 29.019531 Z M 0.628906 5.609375 "/>
<path style=" stroke:none;fill-rule:nonzero;fill:rgb(100%,30.980392%,30.980392%);fill-opacity:1;" d="M 0.628906 2.15625 L 39.371094 2.15625 L 39.371094 5.921875 L 0.628906 5.921875 Z M 0.628906 2.15625 "/>
<path style=" stroke:none;fill-rule:nonzero;fill:rgb(0%,0%,0%);fill-opacity:1;" d="M 17.914062 18.164062 C 17.5625 18.164062 17.25 18.398438 17.160156 18.742188 L 16.121094 22.519531 L 16.082031 22.359375 C 15.996094 22.007812 15.683594 21.761719 15.320312 21.761719 L 12.726562 21.761719 C 12.292969 21.761719 11.941406 22.113281 11.941406 22.546875 C 11.941406 22.980469 12.292969 23.332031 12.726562 23.332031 L 14.703125 23.332031 L 15.316406 25.832031 C 15.398438 26.179688 15.707031 26.425781 16.066406 26.433594 C 16.070312 26.433594 16.074219 26.433594 16.078125 26.433594 C 16.429688 26.433594 16.738281 26.195312 16.832031 25.855469 L 18.511719 19.734375 L 23.859375 19.734375 C 24.292969 19.734375 24.644531 19.382812 24.644531 18.949219 C 24.644531 18.515625 24.292969 18.164062 23.859375 18.164062 Z M 17.914062 18.164062 "/>
<path style=" stroke:none;fill-rule:nonzero;fill:rgb(0%,0%,0%);fill-opacity:1;" d="M 23.242188 21.433594 C 22.9375 21.128906 22.441406 21.128906 22.132812 21.433594 L 21.273438 22.292969 L 20.414062 21.433594 C 20.109375 21.128906 19.613281 21.128906 19.304688 21.433594 C 19 21.738281 19 22.238281 19.304688 22.542969 L 20.164062 23.402344 L 19.304688 24.261719 C 19 24.570312 19 25.066406 19.304688 25.371094 C 19.460938 25.523438 19.660156 25.601562 19.859375 25.601562 C 20.0625 25.601562 20.261719 25.523438 20.414062 25.371094 L 21.273438 24.511719 L 22.136719 25.371094 C 22.289062 25.523438 22.488281 25.601562 22.6875 25.601562 C 22.890625 25.601562 23.089844 25.523438 23.242188 25.371094 C 23.550781 25.066406 23.550781 24.570312 23.242188 24.261719 L 22.382812 23.402344 L 23.242188 22.542969 C 23.550781 22.238281 23.550781 21.738281 23.242188 21.433594 Z M 23.242188 21.433594 "/>
<path style=" stroke:none;fill-rule:nonzero;fill:rgb(0%,0%,0%);fill-opacity:1;" d="M 21.5625 12.265625 C 21.253906 11.957031 20.757812 11.957031 20.453125 12.265625 C 20.144531 12.570312 20.144531 13.066406 20.453125 13.375 L 21.011719 13.933594 L 20.453125 14.492188 C 20.144531 14.796875 20.144531 15.296875 20.453125 15.601562 C 20.605469 15.753906 20.804688 15.832031 21.007812 15.832031 C 21.207031 15.832031 21.40625 15.753906 21.5625 15.601562 L 22.121094 15.042969 L 22.679688 15.601562 C 22.832031 15.753906 23.035156 15.832031 23.234375 15.832031 C 23.433594 15.832031 23.636719 15.753906 23.789062 15.601562 C 24.09375 15.296875 24.09375 14.796875 23.789062 14.492188 L 23.230469 13.933594 L 23.789062 13.375 C 24.09375 13.066406 24.09375 12.570312 23.789062 12.265625 C 23.480469 11.957031 22.984375 11.957031 22.679688 12.265625 L 22.121094 12.824219 Z M 21.5625 12.265625 "/>
<path style=" stroke:none;fill-rule:nonzero;fill:rgb(0%,0%,0%);fill-opacity:1;" d="M 18.511719 15.640625 C 19.15625 14.734375 19.207031 13.453125 19.128906 12.378906 C 19.125 12.308594 19.121094 12.238281 19.117188 12.171875 C 19.289062 12.171875 19.460938 12.171875 19.632812 12.171875 C 20.640625 12.171875 20.644531 10.601562 19.632812 10.601562 C 19.492188 10.601562 19.355469 10.601562 19.214844 10.601562 C 19.246094 10.492188 19.285156 10.371094 19.339844 10.230469 C 19.34375 10.226562 19.347656 10.21875 19.351562 10.207031 C 19.378906 10.15625 19.40625 10.105469 19.4375 10.054688 C 19.453125 10.027344 19.46875 10.003906 19.484375 9.980469 C 19.492188 9.972656 19.519531 9.941406 19.542969 9.914062 C 19.628906 9.828125 19.714844 9.789062 19.796875 9.773438 C 19.761719 9.777344 20.011719 9.769531 20.039062 9.777344 C 20.140625 9.796875 20.148438 9.828125 20.167969 9.835938 C 20.171875 9.839844 20.195312 9.863281 20.214844 9.882812 C 20.230469 9.90625 20.253906 9.933594 20.257812 9.941406 C 20.285156 9.976562 20.296875 9.996094 20.304688 10.003906 C 20.480469 10.335938 20.820312 10.546875 21.214844 10.441406 C 21.589844 10.335938 21.917969 9.871094 21.761719 9.476562 C 21.15625 7.929688 19.109375 7.816406 18.179688 9.117188 C 17.871094 9.550781 17.703125 10.0625 17.613281 10.601562 C 17.476562 10.601562 17.34375 10.601562 17.207031 10.601562 C 16.199219 10.601562 16.195312 12.171875 17.207031 12.171875 C 17.320312 12.171875 17.433594 12.171875 17.546875 12.171875 C 17.550781 12.238281 17.554688 12.308594 17.5625 12.378906 C 17.585938 12.695312 17.589844 13.015625 17.578125 13.335938 C 17.554688 13.796875 17.542969 14.042969 17.351562 14.527344 C 17.347656 14.53125 17.34375 14.539062 17.339844 14.546875 C 17.3125 14.601562 17.285156 14.652344 17.253906 14.703125 C 17.238281 14.730469 17.222656 14.753906 17.207031 14.777344 C 17.199219 14.785156 17.171875 14.816406 17.148438 14.84375 C 17.0625 14.929688 16.976562 14.96875 16.894531 14.984375 C 16.929688 14.980469 16.679688 14.988281 16.652344 14.980469 C 16.550781 14.960938 16.542969 14.929688 16.523438 14.921875 C 16.519531 14.917969 16.496094 14.894531 16.476562 14.875 C 16.460938 14.851562 16.4375 14.824219 16.433594 14.816406 C 16.40625 14.78125 16.394531 14.761719 16.386719 14.753906 C 16.210938 14.421875 15.871094 14.210938 15.476562 14.316406 C 15.101562 14.421875 14.773438 14.886719 14.929688 15.28125 C 15.535156 16.828125 17.582031 16.941406 18.511719 15.640625 Z M 20.273438 9.949219 C 20.265625 9.933594 20.257812 9.914062 20.25 9.890625 C 20.257812 9.910156 20.265625 9.929688 20.273438 9.949219 Z M 16.441406 14.867188 C 16.433594 14.847656 16.425781 14.828125 16.417969 14.808594 C 16.425781 14.824219 16.433594 14.84375 16.441406 14.867188 Z M 16.441406 14.867188 "/>
<path style=" stroke:none;fill-rule:nonzero;fill:rgb(0%,0%,0%);fill-opacity:1;" d="M 5.515625 10.429688 L 6.746094 10.429688 L 6.746094 11.230469 C 6.746094 12.738281 6.160156 14.15625 5.09375 15.222656 C 4.789062 15.527344 4.789062 16.023438 5.09375 16.332031 C 5.246094 16.484375 5.449219 16.5625 5.648438 16.5625 C 5.851562 16.5625 6.050781 16.484375 6.203125 16.332031 C 7.566406 14.96875 8.316406 13.15625 8.316406 11.230469 L 8.316406 10.429688 L 9.703125 10.429688 L 9.703125 14.628906 C 9.703125 15.695312 10.570312 16.5625 11.632812 16.5625 C 12.699219 16.5625 13.5625 15.695312 13.5625 14.628906 L 13.5625 14.199219 C 13.5625 13.765625 13.210938 13.417969 12.777344 13.417969 C 12.347656 13.417969 11.996094 13.765625 11.996094 14.199219 L 11.996094 14.628906 C 11.996094 14.832031 11.832031 14.992188 11.632812 14.992188 C 11.433594 14.992188 11.269531 14.832031 11.269531 14.628906 L 11.269531 10.429688 L 12.398438 10.429688 C 12.828125 10.429688 13.179688 10.082031 13.179688 9.648438 C 13.179688 9.214844 12.828125 8.863281 12.398438 8.863281 L 5.515625 8.863281 C 5.082031 8.863281 4.730469 9.214844 4.730469 9.648438 C 4.730469 10.082031 5.082031 10.429688 5.515625 10.429688 Z M 5.515625 10.429688 "/>
<path style=" stroke:none;fill-rule:nonzero;fill:rgb(0%,0%,0%);fill-opacity:1;" d="M 27.632812 20.375 C 27.753906 20.667969 28.039062 20.859375 28.355469 20.859375 L 34.488281 20.859375 C 34.917969 20.859375 35.269531 20.507812 35.269531 20.074219 L 35.269531 19.023438 C 35.269531 18.589844 34.917969 18.242188 34.488281 18.242188 C 34.054688 18.242188 33.703125 18.59375 33.703125 19.023438 L 33.703125 19.289062 L 30.25 19.289062 L 31.976562 17.5625 C 32.28125 17.257812 32.28125 16.761719 31.976562 16.453125 L 30.25 14.726562 L 33.703125 14.726562 L 33.703125 14.992188 C 33.703125 15.425781 34.054688 15.777344 34.488281 15.777344 C 34.917969 15.777344 35.269531 15.425781 35.269531 14.992188 L 35.269531 13.945312 C 35.269531 13.511719 34.917969 13.160156 34.488281 13.160156 L 28.355469 13.160156 C 28.039062 13.160156 27.753906 13.351562 27.632812 13.644531 C 27.511719 13.9375 27.578125 14.273438 27.800781 14.5 L 30.3125 17.007812 L 27.800781 19.519531 C 27.578125 19.742188 27.511719 20.082031 27.632812 20.375 Z M 27.632812 20.375 "/>
<path style=" stroke:none;fill-rule:nonzero;fill:rgb(0%,0%,0%);fill-opacity:1;" d="M 39.214844 1.53125 L 0.785156 1.53125 C 0.351562 1.53125 0 1.878906 0 2.3125 L 0 28.863281 C 0 29.296875 0.351562 29.648438 0.785156 29.648438 L 18.511719 29.648438 L 13.3125 37.242188 C 13.070312 37.601562 13.160156 38.089844 13.519531 38.332031 C 13.652344 38.425781 13.808594 38.46875 13.960938 38.46875 C 14.210938 38.46875 14.457031 38.351562 14.609375 38.128906 L 20 30.253906 L 25.390625 38.128906 C 25.542969 38.351562 25.789062 38.46875 26.039062 38.46875 C 26.191406 38.46875 26.347656 38.425781 26.484375 38.332031 C 26.839844 38.089844 26.929688 37.601562 26.6875 37.242188 L 21.488281 29.648438 L 39.214844 29.648438 C 39.648438 29.648438 40 29.296875 40 28.863281 L 40 2.3125 C 40 1.878906 39.648438 1.53125 39.214844 1.53125 Z M 1.570312 3.097656 L 38.429688 3.097656 L 38.429688 4.980469 L 1.570312 4.980469 Z M 38.429688 28.078125 L 20.007812 28.078125 C 20.007812 28.078125 20.003906 28.078125 20.003906 28.078125 L 1.570312 28.078125 L 1.570312 6.550781 L 38.429688 6.550781 Z M 38.429688 28.078125 "/>
<path style=" stroke:none;fill-rule:nonzero;fill:rgb(0%,0%,0%);fill-opacity:1;" d="M 27.277344 25.601562 L 31.988281 25.601562 C 32.421875 25.601562 32.773438 25.25 32.773438 24.816406 C 32.773438 24.382812 32.421875 24.03125 31.988281 24.03125 L 27.277344 24.03125 C 26.84375 24.03125 26.492188 24.382812 26.492188 24.816406 C 26.492188 25.25 26.84375 25.601562 27.277344 25.601562 Z M 27.277344 25.601562 "/>
<path style=" stroke:none;fill-rule:nonzero;fill:rgb(0%,0%,0%);fill-opacity:1;" d="M 34.488281 24.03125 C 33.476562 24.03125 33.476562 25.601562 34.488281 25.601562 C 35.496094 25.601562 35.496094 24.03125 34.488281 24.03125 Z M 34.488281 24.03125 "/>
</g>
</svg>
