<?xml version="1.0" encoding="UTF-8"?>
<svg xmlns="http://www.w3.org/2000/svg" xmlns:xlink="http://www.w3.org/1999/xlink" width="45px" height="45px" viewBox="0 0 40 40" version="1.1">
<g id="surface1">
<path style=" stroke:none;fill-rule:nonzero;fill:rgb(27.058824%,35.294118%,39.215686%);fill-opacity:1;" d="M 7.824219 20.871094 L 0.871094 20.871094 C 0.390625 20.871094 0 20.480469 0 20 C 0 19.519531 0.390625 19.128906 0.871094 19.128906 L 7.824219 19.128906 C 8.304688 19.128906 8.695312 19.519531 8.695312 20 C 8.695312 20.480469 8.304688 20.871094 7.824219 20.871094 Z M 7.824219 20.871094 "/>
<path style=" stroke:none;fill-rule:nonzero;fill:rgb(27.058824%,35.294118%,39.215686%);fill-opacity:1;" d="M 39.128906 20.871094 L 32.175781 20.871094 C 31.695312 20.871094 31.304688 20.480469 31.304688 20 C 31.304688 19.519531 31.695312 19.128906 32.175781 19.128906 L 39.128906 19.128906 C 39.609375 19.128906 40 19.519531 40 20 C 40 20.480469 39.609375 20.871094 39.128906 20.871094 Z M 39.128906 20.871094 "/>
<path style=" stroke:none;fill-rule:nonzero;fill:rgb(27.058824%,35.294118%,39.215686%);fill-opacity:1;" d="M 20 31.304688 C 19.519531 31.304688 19.128906 30.914062 19.128906 30.433594 L 19.128906 0.871094 C 19.128906 0.390625 19.519531 0 20 0 C 20.480469 0 20.871094 0.390625 20.871094 0.871094 L 20.871094 30.433594 C 20.871094 30.914062 20.480469 31.304688 20 31.304688 Z M 20 31.304688 "/>
<path style=" stroke:none;fill-rule:nonzero;fill:rgb(12.941176%,58.823529%,95.294118%);fill-opacity:1;" d="M 37.390625 5.21875 C 31.703125 5.21875 29.828125 12.539062 28.015625 19.617188 C 26.332031 26.21875 24.585938 33.042969 20 33.042969 C 15.652344 33.042969 14.03125 26.683594 12.3125 19.953125 C 10.460938 12.707031 8.542969 5.21875 2.609375 5.21875 C 2.128906 5.21875 1.738281 5.605469 1.738281 6.085938 C 1.738281 6.566406 2.128906 6.957031 2.609375 6.957031 C 7.191406 6.957031 8.9375 13.78125 10.625 20.378906 C 12.4375 27.460938 14.3125 34.78125 20 34.78125 C 25.933594 34.78125 27.851562 27.292969 29.703125 20.046875 C 31.425781 13.316406 33.042969 6.957031 37.390625 6.957031 C 37.871094 6.957031 38.261719 6.566406 38.261719 6.085938 C 38.261719 5.605469 37.871094 5.21875 37.390625 5.21875 Z M 37.390625 5.21875 "/>
<path style=" stroke:none;fill-rule:nonzero;fill:rgb(27.058824%,35.294118%,39.215686%);fill-opacity:1;" d="M 20 40 C 19.519531 40 19.128906 39.609375 19.128906 39.128906 L 19.128906 37.390625 C 19.128906 36.910156 19.519531 36.523438 20 36.523438 C 20.480469 36.523438 20.871094 36.910156 20.871094 37.390625 L 20.871094 39.128906 C 20.871094 39.609375 20.480469 40 20 40 Z M 20 40 "/>
<path style=" stroke:none;fill-rule:nonzero;fill:rgb(27.058824%,35.294118%,39.215686%);fill-opacity:1;" d="M 25.21875 20.871094 L 14.78125 20.871094 C 14.300781 20.871094 13.914062 20.480469 13.914062 20 C 13.914062 19.519531 14.300781 19.128906 14.78125 19.128906 L 25.21875 19.128906 C 25.699219 19.128906 26.085938 19.519531 26.085938 20 C 26.085938 20.480469 25.699219 20.871094 25.21875 20.871094 Z M 25.21875 20.871094 "/>
</g>
</svg>
