<svg id="Layer_3" enable-background="new 0 0 64 64" height="300" viewBox="0 0 64 64" width="300" xmlns="http://www.w3.org/2000/svg"><g><g><path d="m13 52c.613 1.226 1.866 2 3.236 2h.146c1.998 0 3.618 1.62 3.618 3.618v4.382h-18v-4.382c0-1.998 1.62-3.618 3.618-3.618h.146c1.37 0 2.623-.774 3.236-2" fill="#f5b953"/></g><g><path d="m60 6v26h-35v-26" fill="#c7e2fc"/></g><g><path d="m25 24.489c2.764.972 5.806 1.511 9 1.511 12.703 0 23-8.507 23-19 0-.336-.011-.669-.032-1h-31.968z" fill="#ebf7fe"/></g><g><path d="m23 2h39v4h-39z" fill="#4d5d7a"/></g><g><path d="m18 26v-9l4 4 7-7-3-3-4 4-3-3h-13c-2.209 0-4 1.791-4 4v6c0 2.209 1.791 4 4 4" fill="#3d98f7"/></g><g><path d="m18 38h-4v-10h-4v10h-4v-14h12z" fill="#4d5d7a"/></g><g><path d="m6 26v-4h-4c0 2.209 1.791 4 4 4z" fill="#efbe9a"/></g><g><path d="m12 10c-1.657 0-3-1.343-3-3v-2c0-1.657 1.343-3 3-3 1.657 0 3 1.343 3 3v2c0 1.657-1.343 3-3 3z" fill="#efbe9a"/></g><g><path d="m11 52c-2.761 0-5-2.239-5-5v-2c0-2.761 2.239-5 5-5 2.761 0 5 2.239 5 5v2c0 2.761-2.239 5-5 5z" fill="#efbe9a"/></g><g><path d="m32 52c-2.761 0-5-2.239-5-5v-2c0-2.761 2.239-5 5-5 2.761 0 5 2.239 5 5v2c0 2.761-2.239 5-5 5z" fill="#efbe9a"/></g><g><path d="m53 52c-2.761 0-5-2.239-5-5v-2c0-2.761 2.239-5 5-5 2.761 0 5 2.239 5 5v2c0 2.761-2.239 5-5 5z" fill="#efbe9a"/></g><g><path d="m11 53c-3.309 0-6-2.691-6-6v-2c0-3.309 2.691-6 6-6s6 2.691 6 6v2c0 3.309-2.691 6-6 6zm0-12c-2.206 0-4 1.794-4 4v2c0 2.206 1.794 4 4 4s4-1.794 4-4v-2c0-2.206-1.794-4-4-4z"/></g><g><path d="m34 52c.613 1.226 1.866 2 3.236 2h.146c1.998 0 3.618 1.62 3.618 3.618v4.382h-18v-4.382c0-1.998 1.62-3.618 3.618-3.618h.146c1.37 0 2.623-.774 3.236-2" fill="#f5b953"/></g><g><path d="m55 52c.613 1.226 1.866 2 3.236 2h.146c1.998 0 3.618 1.62 3.618 3.618v4.382h-18v-4.382c0-1.998 1.62-3.618 3.618-3.618h.146c1.37 0 2.623-.774 3.236-2" fill="#f5b953"/></g><g><path d="m20 63h-18c-.553 0-1-.448-1-1v-4.382c0-2.546 2.071-4.618 4.618-4.618h.146c.998 0 1.896-.555 2.342-1.447l1.789.895c-.789 1.574-2.372 2.552-4.131 2.552h-.146c-1.443 0-2.618 1.174-2.618 2.618v3.382h16v-3.382c0-1.444-1.175-2.618-2.618-2.618h-.146c-1.76 0-3.343-.978-4.131-2.553l1.789-.895c.447.893 1.344 1.448 2.342 1.448h.146c2.547 0 4.618 2.072 4.618 4.618v4.382c0 .552-.447 1-1 1z"/></g><g><path d="m32 53c-3.309 0-6-2.691-6-6v-2c0-3.309 2.691-6 6-6s6 2.691 6 6v2c0 3.309-2.691 6-6 6zm0-12c-2.206 0-4 1.794-4 4v2c0 2.206 1.794 4 4 4s4-1.794 4-4v-2c0-2.206-1.794-4-4-4z"/></g><g><path d="m41 63h-18c-.553 0-1-.448-1-1v-4.382c0-2.546 2.071-4.618 4.618-4.618h.146c.998 0 1.896-.555 2.342-1.447l1.789.895c-.789 1.574-2.372 2.552-4.131 2.552h-.146c-1.443 0-2.618 1.174-2.618 2.618v3.382h16v-3.382c0-1.444-1.175-2.618-2.618-2.618h-.146c-1.76 0-3.343-.978-4.131-2.553l1.789-.895c.447.893 1.344 1.448 2.342 1.448h.146c2.547 0 4.618 2.072 4.618 4.618v4.382c0 .552-.447 1-1 1z"/></g><g><path d="m53 53c-3.309 0-6-2.691-6-6v-2c0-3.309 2.691-6 6-6s6 2.691 6 6v2c0 3.309-2.691 6-6 6zm0-12c-2.206 0-4 1.794-4 4v2c0 2.206 1.794 4 4 4s4-1.794 4-4v-2c0-2.206-1.794-4-4-4z"/></g><g><path d="m62 63h-18c-.553 0-1-.448-1-1v-4.382c0-2.546 2.071-4.618 4.618-4.618h.146c.998 0 1.896-.555 2.342-1.447l1.789.895c-.789 1.574-2.372 2.552-4.131 2.552h-.146c-1.443 0-2.618 1.174-2.618 2.618v3.382h16v-3.382c0-1.444-1.175-2.618-2.618-2.618h-.146c-1.76 0-3.343-.978-4.131-2.553l1.789-.895c.447.893 1.344 1.448 2.342 1.448h.146c2.547 0 4.618 2.072 4.618 4.618v4.382c0 .552-.447 1-1 1z"/></g><g><path d="m62 7h-39c-.553 0-1-.448-1-1v-4c0-.552.447-1 1-1h39c.553 0 1 .448 1 1v4c0 .552-.447 1-1 1zm-38-2h37v-2h-37z"/></g><g><path d="m24 6h2v6h-2z"/></g><g><path d="m60 33h-35c-.553 0-1-.448-1-1v-14h2v13h33v-25h2v26c0 .552-.447 1-1 1z"/></g><g><path d="m15 38h-2v-9h-2v9h-2v-10c0-.552.447-1 1-1h4c.553 0 1 .448 1 1z"/></g><g><path d="m5 17h2v21h-2z"/></g><g><path d="m19 38h-2v-21c0-.404.243-.769.617-.924.375-.154.804-.069 1.09.217l3.293 3.293 5.586-5.586-1.586-1.586-3.293 3.293c-.391.391-1.023.391-1.414 0l-2.707-2.707h-12.586c-1.654 0-3 1.346-3 3v6c0 1.654 1.346 3 3 3v2c-2.757 0-5-2.243-5-5v-6c0-2.757 2.243-5 5-5h13c.266 0 .52.105.707.293l2.293 2.293 3.293-3.293c.391-.391 1.023-.391 1.414 0l3 3c.391.391.391 1.023 0 1.414l-7 7c-.391.391-1.023.391-1.414 0l-2.293-2.293z"/></g><g><path d="m12 11c-2.206 0-4-1.794-4-4v-2c0-2.206 1.794-4 4-4s4 1.794 4 4v2c0 2.206-1.794 4-4 4zm0-8c-1.103 0-2 .897-2 2v2c0 1.103.897 2 2 2s2-.897 2-2v-2c0-1.103-.897-2-2-2z"/></g><g><path d="m6 23h12v2h-12z"/></g><g><path d="m2 21h4v2h-4z"/></g><g><path d="m30 9h2v2h-2z"/></g><g><path d="m34 9h23v2h-23z"/></g><g><path d="m55 13h2v2h-2z"/></g><g><path d="m34 13h19v2h-19z"/></g><g><path d="m34 17h2v2h-2z"/></g><g><path d="m38 17h19v2h-19z"/></g><g><path d="m55 21h2v2h-2z"/></g><g><path d="m34 21h19v2h-19z"/></g><g><path d="m34 25h2v2h-2z"/></g><g><path d="m38 25h19v2h-19z"/></g></g></svg>